<?xml version="1.0" encoding="utf-8"?>
<!-- Generator: Adobe Illustrator 22.1.0, SVG Export Plug-In . SVG Version: 6.00 Build 0)  -->
<svg version="1.1" id="Layer_1" xmlns="http://www.w3.org/2000/svg" xmlns:xlink="http://www.w3.org/1999/xlink" x="0px" y="0px"
	 viewBox="0 0 20 20" style="enable-background:new 0 0 20 20;" xml:space="preserve">
<style type="text/css">
	.st0{clip-path:url(#SVGID_2_);fill:#D2644C;}
	.st1{clip-path:url(#SVGID_4_);fill:#FFFFFF;}
</style>
<g>
	<defs>
		<rect id="SVGID_1_" x="0" y="0.1" width="20" height="20"/>
	</defs>
	<clipPath id="SVGID_2_">
		<use xlink:href="#SVGID_1_"  style="overflow:visible;"/>
	</clipPath>
	<path class="st0" d="M10,20.1c5.5,0,10-4.5,10-10s-4.5-10-10-10S0,4.6,0,10.1S4.5,20.1,10,20.1"/>
</g>
<g>
	<defs>
		<rect id="SVGID_3_" x="3.5" y="2.8" width="12.3" height="14.9"/>
	</defs>
	<clipPath id="SVGID_4_">
		<use xlink:href="#SVGID_3_"  style="overflow:visible;"/>
	</clipPath>
	<path class="st1" d="M13.4,6.4L15,4.8v3.1c0,0.8-0.2,1.4-0.6,1.7c-0.4,0.3-1.1,0.5-2,0.5h-0.7V4.8L13.4,6.4z M7.9,9.3v1.6h5.3
		l-2.5,2.5c-0.3,0.3-0.6,0.5-0.9,0.6c-0.3,0.1-0.6,0.2-1.1,0.2H7.9v1.6l-3.2-3.2L7.9,9.3z M8.8,17.8V15H9c0.5,0,1-0.1,1.3-0.3
		s0.8-0.5,1.3-1l2.6-2.6c0.7-0.7,1.2-1.3,1.3-1.7c0.2-0.4,0.3-1.1,0.3-2.2V2.8l-2.5,2.5l-2.5-2.5v7.3H8.8V7.3l-5.2,5.2L8.8,17.8z"/>
</g>
</svg>
