<?xml version="1.0" encoding="utf-8"?>
<!-- Generator: Adobe Illustrator 22.1.0, SVG Export Plug-In . SVG Version: 6.00 Build 0)  -->
<svg version="1.1" id="Layer_1" xmlns="http://www.w3.org/2000/svg" xmlns:xlink="http://www.w3.org/1999/xlink" x="0px" y="0px"
	 viewBox="0 0 20 20" style="enable-background:new 0 0 20 20;" xml:space="preserve">
<style type="text/css">
	.st0{clip-path:url(#SVGID_2_);fill:#D2644C;}
	.st1{clip-path:url(#SVGID_4_);fill:#FFFFFF;}
</style>
<g>
	<defs>
		<rect id="SVGID_1_" x="0" y="0.1" width="20" height="20"/>
	</defs>
	<clipPath id="SVGID_2_">
		<use xlink:href="#SVGID_1_"  style="overflow:visible;"/>
	</clipPath>
	<path class="st0" d="M10,20.1c5.5,0,10-4.5,10-10s-4.5-10-10-10S0,4.6,0,10.1S4.5,20.1,10,20.1"/>
</g>
<g>
	<defs>
		<rect id="SVGID_3_" x="3.7" y="3.6" width="12.6" height="12.6"/>
	</defs>
	<clipPath id="SVGID_4_">
		<use xlink:href="#SVGID_3_"  style="overflow:visible;"/>
	</clipPath>
	<path class="st1" d="M10,3.5c-1.4,0-2.6,0.4-3.7,1.2C5.3,5.5,4.5,6.6,4,7.9h4.6L10,3.5z M4,7.9C3.8,8.6,3.7,9.3,3.7,9.8
		c0,2,0.9,3.7,2.6,5.1l1.4-4.3L4,7.9z M6.3,14.9c1.2,0.8,2.4,1.2,3.7,1.2c1.3,0,2.5-0.4,3.7-1.2L10,12.2L6.3,14.9z M13.7,14.9
		c1.7-1.3,2.6-3,2.6-5.1c0-0.6-0.1-1.2-0.3-2l-3.7,2.7L13.7,14.9z M16,7.9c-0.5-1.3-1.2-2.4-2.3-3.2c-1.1-0.8-2.3-1.2-3.7-1.2
		l1.4,4.3H16z"/>
</g>
</svg>
