<?xml version="1.0" encoding="utf-8"?>
<!-- Generator: Adobe Illustrator 22.1.0, SVG Export Plug-In . SVG Version: 6.00 Build 0)  -->
<svg version="1.1" id="Layer_1" xmlns="http://www.w3.org/2000/svg" xmlns:xlink="http://www.w3.org/1999/xlink" x="0px" y="0px"
	 viewBox="0 0 20 20" style="enable-background:new 0 0 20 20;" xml:space="preserve">
<style type="text/css">
	.st0{clip-path:url(#SVGID_2_);fill:#D2644C;}
	.st1{fill:#FFFFFF;}
</style>
<g>
	<defs>
		<rect id="SVGID_1_" x="0" y="0" width="20" height="20"/>
	</defs>
	<clipPath id="SVGID_2_">
		<use xlink:href="#SVGID_1_"  style="overflow:visible;"/>
	</clipPath>
	<path class="st0" d="M10,20c5.5,0,10-4.5,10-10S15.5,0,10,0S0,4.5,0,10S4.5,20,10,20"/>
</g>
<g>
	<circle class="st1" cx="5.3" cy="6.6" r="1.8"/>
	<path class="st1" d="M5.3,17.2L5.3,17.2c-1.2,0-2.2-1-2.2-2.2v-4.1c0-1.2,1-2.2,2.2-2.2h0c1.2,0,2.2,1,2.2,2.2V15
		C7.5,16.2,6.5,17.2,5.3,17.2z"/>
</g>
<g>
	<circle class="st1" cx="15.1" cy="9.6" r="1.8"/>
	<path class="st1" d="M15.1,17.3L15.1,17.3c-1.2,0-2.2-1-2.2-2.2v-1.3c0-1.2,1-2.2,2.2-2.2h0c1.2,0,2.2,1,2.2,2.2v1.3
		C17.2,16.3,16.3,17.3,15.1,17.3z"/>
</g>
<g>
	<circle class="st1" cx="10.2" cy="3.9" r="1.8"/>
	<path class="st1" d="M10.2,17.3L10.2,17.3c-1.2,0-2.2-1-2.2-2.2V8.2C8,7,9,6.1,10.2,6.1h0c1.2,0,2.2,1,2.2,2.2v6.9
		C12.4,16.3,11.4,17.3,10.2,17.3z"/>
</g>
</svg>
