<?xml version="1.0" encoding="utf-8"?>
<!-- Generator: Adobe Illustrator 22.1.0, SVG Export Plug-In . SVG Version: 6.00 Build 0)  -->
<svg version="1.1" id="Layer_1" xmlns="http://www.w3.org/2000/svg" xmlns:xlink="http://www.w3.org/1999/xlink" x="0px" y="0px"
	 viewBox="0 0 20 20" style="enable-background:new 0 0 20 20;" xml:space="preserve">
<style type="text/css">
	.st0{clip-path:url(#SVGID_2_);fill:#D2644C;}
	.st1{fill:#FFFFFF;}
	.st2{clip-path:url(#SVGID_4_);fill:none;stroke:#FFFFFF;stroke-width:0.4;}
</style>
<g>
	<defs>
		<rect id="SVGID_1_" x="0" width="20" height="20"/>
	</defs>
	<clipPath id="SVGID_2_">
		<use xlink:href="#SVGID_1_"  style="overflow:visible;"/>
	</clipPath>
	<path class="st0" d="M10,20c5.5,0,10-4.5,10-10S15.5,0,10,0S0,4.5,0,10S4.5,20,10,20"/>
</g>
<path class="st1" d="M8.8,11.8h3.8v-0.3H8.8V11.8z M8.2,10.7H12v-0.3H8.2V10.7z M7.7,9.5h3.8V9.2H7.7V9.5z M12.9,8.4h1.4V6.6h-1.4
	V8.4z M4.5,5.8h11v8.1h-11V5.8z M4.2,14.1h11.6V5.5H4.2V14.1z"/>
<g>
	<defs>
		<rect id="SVGID_3_" x="4" y="5.3" width="12" height="9.1"/>
	</defs>
	<clipPath id="SVGID_4_">
		<use xlink:href="#SVGID_3_"  style="overflow:visible;"/>
	</clipPath>
	<path class="st2" d="M4.2,14.1h11.6V5.5H4.2V14.1z M15.5,13.9h-11V5.8h11V13.9z M8.2,10.7H12v-0.3H8.2V10.7z M8.8,11.8h3.8v-0.3
		H8.8V11.8z M7.7,9.5h3.8V9.2H7.7V9.5z M12.9,8.4h1.4V6.6h-1.4V8.4z"/>
</g>
</svg>
