<?xml version="1.0" encoding="utf-8"?>
<!-- Generator: Adobe Illustrator 22.1.0, SVG Export Plug-In . SVG Version: 6.00 Build 0)  -->
<svg version="1.1" id="Layer_1" xmlns="http://www.w3.org/2000/svg" xmlns:xlink="http://www.w3.org/1999/xlink" x="0px" y="0px"
	 viewBox="0 0 20 20" style="enable-background:new 0 0 20 20;" xml:space="preserve">
<style type="text/css">
	.st0{clip-path:url(#SVGID_2_);fill:#D2644C;}
	.st1{clip-path:url(#SVGID_4_);fill:#FFFFFF;}
</style>
<g>
	<defs>
		<rect id="SVGID_1_" width="20" height="20"/>
	</defs>
	<clipPath id="SVGID_2_">
		<use xlink:href="#SVGID_1_"  style="overflow:visible;"/>
	</clipPath>
	<path class="st0" d="M10,20c5.5,0,10-4.5,10-10S15.5,0,10,0S0,4.5,0,10S4.5,20,10,20"/>
</g>
<g>
	<defs>
		<rect id="SVGID_3_" x="3.2" y="3.1" width="13.6" height="14.4"/>
	</defs>
	<clipPath id="SVGID_4_">
		<use xlink:href="#SVGID_3_"  style="overflow:visible;"/>
	</clipPath>
	<path class="st1" d="M6.7,12c1.4,1.7,2.8,3.5,3.3,5.6c0.7-2.4,2.5-4.5,4.1-6.4c1.2-1.4,2.7-3.2,2.7-5c0-1.7-1.4-2.9-3.3-2.9
		c-1.8,0-3.1,1.4-3.5,2.9C9.5,4.4,8.3,3.1,6.4,3.1c-1.8,0-3.2,1.3-3.2,3c0,1.8,1.3,3.2,2.4,4.5L6.7,12z"/>
</g>
</svg>
