<?xml version="1.0" encoding="utf-8"?>
<!-- Generator: Adobe Illustrator 22.1.0, SVG Export Plug-In . SVG Version: 6.00 Build 0)  -->
<svg version="1.1" id="Layer_1" xmlns="http://www.w3.org/2000/svg" xmlns:xlink="http://www.w3.org/1999/xlink" x="0px" y="0px"
	 viewBox="0 0 20 20" style="enable-background:new 0 0 20 20;" xml:space="preserve">
<style type="text/css">
	.st0{clip-path:url(#SVGID_2_);fill:#D2644C;}
	.st1{clip-path:url(#SVGID_2_);fill:#FFFFFF;}
</style>
<g>
	<defs>
		<rect id="SVGID_1_" width="20" height="20"/>
	</defs>
	<clipPath id="SVGID_2_">
		<use xlink:href="#SVGID_1_"  style="overflow:visible;"/>
	</clipPath>
	<path class="st0" d="M10,20c5.5,0,10-4.5,10-10S15.5,0,10,0S0,4.5,0,10S4.5,20,10,20"/>
	<path class="st1" d="M6.6,14.9c0.5,0.2,1,0.3,1.6,0.4s1.1,0.1,1.7,0.1h0.1v1.9h0.4v-1.9c0.8,0,1.4-0.2,2-0.5c0.5-0.3,1-0.7,1.2-1.2
		c0.3-0.5,0.4-1.1,0.4-1.7c0-0.6-0.1-1.1-0.3-1.5c-0.2-0.4-0.5-0.7-0.9-1c-0.4-0.3-0.9-0.6-1.6-1C10.5,8.1,10,7.8,9.6,7.6
		C9.3,7.4,9.1,7.1,8.9,6.9C8.7,6.6,8.6,6.3,8.6,6c0-0.4,0.1-0.8,0.4-1c0.3-0.2,0.7-0.4,1.2-0.4c0.2,0,0.5,0,0.7,0.1
		c0.3,0.1,0.6,0.2,1,0.4c0.4,0.2,1,0.5,1.7,0.9l0.1,0l-0.1-1.6c-0.5-0.1-1-0.2-1.6-0.2c-0.6-0.1-1.1-0.1-1.6-0.1h-0.1V2.3H9.8v1.9
		C9.1,4.3,8.5,4.4,7.9,4.7C7.4,5,7,5.3,6.7,5.8c-0.3,0.5-0.4,1-0.4,1.5c0,0.5,0.1,1,0.3,1.4c0.2,0.4,0.5,0.8,0.9,1.1
		C8,10.2,8.5,10.5,9,10.8c0.7,0.4,1.2,0.7,1.5,0.9c0.3,0.2,0.6,0.5,0.8,0.8c0.2,0.3,0.3,0.6,0.3,0.9c0,0.5-0.2,0.9-0.5,1.2
		c-0.3,0.3-0.7,0.4-1.2,0.4C9.6,15,9.3,15,9,14.8c-0.3-0.1-0.7-0.3-1.1-0.6c-0.4-0.3-1-0.8-1.7-1.4l-0.1,0L6.6,14.9z"/>
</g>
</svg>
