<?xml version="1.0" encoding="utf-8"?>
<!-- Generator: Adobe Illustrator 22.1.0, SVG Export Plug-In . SVG Version: 6.00 Build 0)  -->
<svg version="1.1" id="Layer_1" xmlns="http://www.w3.org/2000/svg" xmlns:xlink="http://www.w3.org/1999/xlink" x="0px" y="0px"
	 viewBox="0 0 20 20" style="enable-background:new 0 0 20 20;" xml:space="preserve">
<style type="text/css">
	.st0{clip-path:url(#SVGID_2_);fill:#D2644C;}
	.st1{clip-path:url(#SVGID_4_);fill:#FFFFFF;}
</style>
<g>
	<defs>
		<rect id="SVGID_1_" x="0" y="0" width="20" height="20"/>
	</defs>
	<clipPath id="SVGID_2_">
		<use xlink:href="#SVGID_1_"  style="overflow:visible;"/>
	</clipPath>
	<path class="st0" d="M10,20c5.5,0,10-4.5,10-10S15.5,0,10,0S0,4.5,0,10S4.5,20,10,20"/>
</g>
<g>
	<defs>
		<rect id="SVGID_3_" x="2.9" y="3.4" width="14" height="14.6"/>
	</defs>
	<clipPath id="SVGID_4_">
		<use xlink:href="#SVGID_3_"  style="overflow:visible;"/>
	</clipPath>
	<path class="st1" d="M4.4,13.2C4.1,13,4,12.5,4,11.8C4,11.2,4.1,11,4.4,11c0.1,0,0.2,0,0.4,0.1l4.3,2.8C9,14.3,9,14.7,9,15.2
		C9,15.8,9,16.4,9.1,17L4.4,13.2z M9.3,17c-0.1-0.6-0.2-1.2-0.2-1.8c0-0.5,0.1-0.9,0.2-1.3l6.8-2.3c-0.1,0.3-0.1,0.6-0.1,0.8
		c0,0.5,0.1,0.9,0.2,1.4L9.3,17z M10.9,11.5L5.3,9.2c0.1-0.5,0.2-1,0.2-1.4c0-0.1,0-0.2,0-0.4l1.7,0.4c0.1,0,0.1,0,0.2,0
		c0.4,0,1-0.1,2-0.2l1.4,0.3c0.2,0.5,0.3,1.1,0.3,1.7C11.2,10.1,11.1,10.8,10.9,11.5 M8.1,6.6c-0.3,0.3-0.6,0.5-1,0.5
		c-0.1,0-0.1,0-0.2,0L3.4,6.5c0.1-0.4,0.2-0.8,0.2-1.2c0-0.4-0.1-0.8-0.2-1.2l3.8-0.3c0.4,0,0.7,0.1,1,0.4c0.3,0.3,0.4,0.7,0.4,1.2
		C8.6,5.8,8.4,6.2,8.1,6.6 M16.3,9.8c-0.1,0.3-0.2,0.5-0.4,0.5L11,11.5c0.2-0.7,0.3-1.3,0.3-2c0-0.6-0.1-1.2-0.3-1.7l4.7-0.6
		c0.2,0,0.4,0.1,0.6,0.4c0.2,0.3,0.3,0.7,0.3,1.1C16.5,9.2,16.5,9.5,16.3,9.8 M16.8,7.9c-0.1-0.4-0.3-0.6-0.4-0.8s-0.5-0.2-1-0.2
		c0.6-0.3,0.9-0.8,0.9-1.4c0-0.5-0.1-0.8-0.4-1.1c-0.2-0.3-0.5-0.4-0.9-0.5L7.3,3.4L2.9,3.9v0.3h0.3c0.1,0.3,0.2,0.7,0.2,1.1
		c0,0.4-0.1,0.8-0.2,1.1l-0.3,0v0.4l2.4,0.5c0,0.2,0,0.3,0,0.4c0,0.4-0.1,0.8-0.2,1.2L4.7,9.1v0.4L6,10.1c-1,0.2-1.6,0.3-1.8,0.4
		c-0.3,0.1-0.4,0.2-0.5,0.3c-0.1,0.1-0.2,0.4-0.2,0.7c0,1.1,0.2,1.8,0.8,2.3L9.2,18l7.5-3.8v-0.5l-0.4-0.2c-0.1-0.4-0.1-0.8-0.1-1.2
		c0.1-0.4,0.1-0.6,0.1-0.8l0.4-0.1v-0.5l-0.5-0.1c0.2-0.1,0.4-0.4,0.5-0.8c0.1-0.4,0.2-0.8,0.2-1.1C16.9,8.5,16.9,8.2,16.8,7.9"/>
</g>
</svg>
