<?xml version="1.0" encoding="utf-8"?>
<!-- Generator: Adobe Illustrator 22.1.0, SVG Export Plug-In . SVG Version: 6.00 Build 0)  -->
<svg version="1.1" id="Layer_1" xmlns="http://www.w3.org/2000/svg" xmlns:xlink="http://www.w3.org/1999/xlink" x="0px" y="0px"
	 viewBox="0 0 20 20" style="enable-background:new 0 0 20 20;" xml:space="preserve">
<style type="text/css">
	.st0{clip-path:url(#SVGID_2_);fill:#D2644C;}
	.st1{clip-path:url(#SVGID_4_);fill:#FFFFFF;}
</style>
<g>
	<defs>
		<rect id="SVGID_1_" x="0" y="0" width="20" height="20"/>
	</defs>
	<clipPath id="SVGID_2_">
		<use xlink:href="#SVGID_1_"  style="overflow:visible;"/>
	</clipPath>
	<path class="st0" d="M10,20c5.5,0,10-4.5,10-10S15.5,0,10,0S0,4.5,0,10S4.5,20,10,20"/>
</g>
<g>
	<defs>
		<rect id="SVGID_3_" x="2.8" y="2.8" width="14.5" height="14.5"/>
	</defs>
	<clipPath id="SVGID_4_">
		<use xlink:href="#SVGID_3_"  style="overflow:visible;"/>
	</clipPath>
	<path class="st1" d="M5.4,7L4.8,6.6L4.5,7.2l0.6,0.3L5.4,7z M15.2,13.4l0.3-0.6l-0.6-0.3L14.6,13L15.2,13.4z M13,5.4l0.3-0.6
		l-0.6-0.3l-0.3,0.6L13,5.4z M6.6,15.2l0.6,0.3l0.3-0.6L7,14.6L6.6,15.2z M7.5,5.1L7.2,4.5L6.6,4.8L7,5.4L7.5,5.1z M12.8,15.5
		l0.6-0.3L13,14.6l-0.6,0.3L12.8,15.5z M14.9,7.5l0.6-0.3l-0.3-0.6L14.6,7L14.9,7.5z M4.5,12.8l0.3,0.6L5.4,13l-0.3-0.6L4.5,12.8z
		 M10.3,3.8H9.7v0.7h0.7V3.8z M15.5,10.3h0.7V9.7h-0.7V10.3z M3.8,10.3h0.7V9.7H3.8V10.3z M10.8,14.6h-0.5v-4l1.7,1L11.9,12l1.9,0.1
		l-1-1.6L12.5,11l-2.1-1.2V8.9H9.6v0.5L9.3,9.2L8.9,9.8l0.7,0.4v4.4H9.2l0.8,1.7L10.8,14.6z M14.8,5.2c1.3,1.3,2,2.9,2,4.8
		s-0.7,3.5-2,4.8c-1.3,1.3-2.9,2-4.8,2s-3.5-0.7-4.8-2c-1.3-1.3-2-2.9-2-4.8s0.7-3.5,2-4.8c1.3-1.3,2.9-2,4.8-2S13.5,3.9,14.8,5.2
		 M4.9,4.9C3.5,6.3,2.8,8,2.8,10c0,2,0.7,3.7,2.1,5.1c1.4,1.4,3.1,2.1,5.1,2.1c2,0,3.7-0.7,5.1-2.1c1.4-1.4,2.1-3.1,2.1-5.1
		c0-2-0.7-3.7-2.1-5.1C13.7,3.5,12,2.8,10,2.8C8,2.8,6.3,3.5,4.9,4.9"/>
</g>
</svg>
